<svg width="203" height="200" viewBox="0 0 203 200" fill="none" xmlns="http://www.w3.org/2000/svg">
<path d="M104.566 187.233C154.109 187.233 194.272 147.071 194.272 97.5271C194.272 47.9838 154.109 7.82092 104.566 7.82092C55.0227 7.82092 14.8599 47.9838 14.8599 97.5271C14.8599 147.071 55.0227 187.233 104.566 187.233Z" fill="url(#paint0_linear_1583_3409)"/>
<path fill-rule="evenodd" clip-rule="evenodd" d="M173.445 142.922H173.456L173.451 142.939L173.435 142.951L173.445 142.922ZM165.125 169.014C165.105 168.968 165.084 168.919 165.062 168.866C164.885 168.449 164.647 167.835 164.411 167.058C163.939 165.503 163.475 163.304 163.508 160.728C163.572 155.637 165.574 149.017 173.435 142.951L165.125 169.014ZM165.268 169.379L165.316 169.427C165.305 169.404 165.291 169.375 165.274 169.34C165.236 169.261 165.186 169.152 165.125 169.014L165.072 169.182L165.25 169.361C165.256 169.366 165.262 169.372 165.268 169.379ZM164.591 170.152L170.316 175.877C170.517 176.077 170.841 176.077 171.041 175.877C171.242 175.677 171.242 175.352 171.041 175.152L165.358 169.468L173.451 142.939L173.473 142.922H182.54C182.823 142.922 183.052 142.692 183.052 142.409C183.052 142.126 182.823 141.896 182.54 141.896H173.304H173.294H137.573C137.504 141.896 137.436 141.911 137.374 141.937C137.363 141.936 137.352 141.936 137.341 141.936C137.08 141.936 136.868 142.148 136.868 142.409V160.65L136.851 160.692C136.797 160.831 136.807 160.979 136.868 161.103V170.807L136.852 170.846C136.797 170.985 136.807 171.134 136.868 171.259V177.736C136.798 177.879 136.8 178.045 136.868 178.185V186.445C136.868 186.707 137.08 186.919 137.341 186.919C137.603 186.919 137.815 186.707 137.815 186.445V178.169C143.894 170.246 150.597 168.274 155.765 168.253C158.372 168.242 160.603 168.729 162.181 169.218C162.97 169.462 163.594 169.707 164.018 169.889C164.23 169.98 164.392 170.055 164.5 170.107C164.537 170.125 164.567 170.14 164.591 170.152ZM162.767 168.328L155.869 161.429C155.773 161.413 155.636 161.39 155.462 161.366C155.092 161.314 154.553 161.253 153.89 161.22C152.562 161.153 150.743 161.197 148.771 161.634C144.848 162.502 140.315 164.924 137.815 171.201V176.523C143.882 169.18 150.527 167.249 155.761 167.228C158.496 167.216 160.832 167.726 162.485 168.238C162.581 168.268 162.675 168.298 162.767 168.328ZM154.686 160.247C154.459 160.227 154.21 160.209 153.942 160.196C152.549 160.126 150.634 160.171 148.549 160.632C144.828 161.456 140.575 163.612 137.815 168.766V161.045C139.513 156.712 142.381 155.17 144.808 154.682C146.037 154.434 147.165 154.455 147.988 154.539C148.398 154.581 148.73 154.639 148.957 154.685C149.044 154.703 149.116 154.719 149.171 154.732L154.686 160.247ZM156.543 160.654L163.513 167.624C163.486 167.537 163.458 167.447 163.43 167.356C162.935 165.725 162.448 163.419 162.482 160.715C162.548 155.546 164.516 148.975 171.829 142.922H165.602C159.414 145.546 157.102 149.982 156.319 153.771C155.923 155.684 155.917 157.438 156.011 158.714C156.058 159.351 156.13 159.867 156.189 160.222C156.195 160.255 156.2 160.286 156.206 160.316L156.432 160.542C156.475 160.574 156.512 160.612 156.543 160.654ZM155.314 153.564C156.065 149.933 158.142 145.752 163.257 142.922H156.291C151.951 144.619 150.392 147.425 149.885 149.782C149.629 150.977 149.64 152.071 149.717 152.867C149.755 153.265 149.809 153.586 149.853 153.805C149.87 153.888 149.885 153.956 149.897 154.008L155.017 159.127C155.007 159.019 154.997 158.906 154.989 158.789C154.89 157.445 154.895 155.593 155.314 153.564ZM144.605 153.676C142.299 154.141 139.681 155.462 137.815 158.677V143.375L147.944 153.505C147.063 153.426 145.888 153.418 144.605 153.676ZM153.911 142.922H138.811L148.681 152.791C148.612 151.937 148.617 150.804 148.883 149.566C149.366 147.318 150.703 144.765 153.911 142.922Z" fill="#D10234"/>
<path fill-rule="evenodd" clip-rule="evenodd" d="M104.707 17.825C104.259 17.64 103.779 17.5452 103.294 17.5461L103.29 17.5461C102.311 17.5469 101.373 17.9362 100.68 18.6283C99.9887 19.3201 99.5995 20.2579 99.5982 21.2362V25.8813H90.418L90.418 21.23C90.4209 17.8191 91.7772 14.5488 94.189 12.1369C96.6004 9.72551 99.87 8.3693 103.28 8.36586L103.282 8.36586C104.972 8.36346 106.647 8.69413 108.209 9.33899C109.773 9.98436 111.194 10.9318 112.392 12.127C113.589 13.3222 114.539 14.7417 115.187 16.3044C115.835 17.8671 116.168 19.5422 116.168 21.2339V25.7095H106.988V21.2339C106.988 20.7491 106.893 20.269 106.707 19.8212C106.521 19.3733 106.249 18.9665 105.906 18.624C105.563 18.2814 105.155 18.0099 104.707 17.825ZM103.282 8.36586L103.28 8.36586L103.282 8.36586Z" fill="url(#paint1_linear_1583_3409)"/>
<path d="M103.852 175.894C122.878 175.894 138.303 160.47 138.303 141.443C138.303 122.417 122.878 106.992 103.852 106.992C84.8251 106.992 69.4009 122.417 69.4009 141.443C69.4009 160.47 84.8251 175.894 103.852 175.894Z" fill="url(#paint2_linear_1583_3409)"/>
<path d="M158.21 103.462V77.0314C158.21 62.6148 152.483 48.7886 142.289 38.5945C132.095 28.4003 118.269 22.6733 103.852 22.6733C89.4352 22.6733 75.609 28.4003 65.4149 38.5945C55.2207 48.7886 49.4938 62.6148 49.4938 77.0314V103.462C49.4944 109.534 47.7766 115.483 44.539 120.62C41.3014 125.757 36.6761 129.873 31.1978 132.492C29.9386 133.092 28.8757 134.037 28.1328 135.217C27.3899 136.397 26.9976 137.764 27.0015 139.159V139.302C27.0006 139.806 27.099 140.305 27.2911 140.771C27.4832 141.236 27.7652 141.659 28.121 142.016C28.4769 142.372 28.8995 142.655 29.3648 142.848C29.8301 143.041 30.3289 143.14 30.8326 143.14H176.864C177.368 143.14 177.866 143.041 178.332 142.848C178.797 142.655 179.22 142.372 179.575 142.016C179.931 141.659 180.213 141.236 180.405 140.771C180.598 140.305 180.696 139.806 180.695 139.302V139.159C180.695 137.769 180.302 136.407 179.561 135.231C178.82 134.055 177.76 133.113 176.506 132.514C171.024 129.893 166.397 125.774 163.159 120.632C159.921 115.491 158.205 109.538 158.21 103.462Z" fill="url(#paint3_linear_1583_3409)"/>
<path fill-rule="evenodd" clip-rule="evenodd" d="M82.7579 82.1632L82.7629 82.1683L102.314 101.722C102.383 101.767 102.44 101.825 102.483 101.892L127.764 127.176C127.993 127.405 127.993 127.776 127.764 128.005C127.535 128.234 127.164 128.234 126.935 128.005L114.589 115.656C104.469 113.3 96.543 115.895 91.1314 119.087C88.4081 120.694 86.3216 122.452 84.9174 123.807C84.2156 124.484 83.6853 125.059 83.332 125.464C83.1554 125.666 83.0232 125.825 82.936 125.932L82.9295 125.94V127.827C82.9295 128.151 82.6672 128.413 82.3436 128.413C82.0199 128.413 81.7576 128.151 81.7576 127.827V125.94C81.7555 125.937 81.7533 125.935 81.7512 125.932C81.664 125.825 81.5317 125.666 81.3551 125.464C81.0018 125.06 80.4714 124.484 79.7696 123.807C78.3653 122.452 76.2787 120.694 73.5549 119.087C68.1441 115.896 60.2197 113.301 50.1008 115.654L37.6303 128.127C37.4014 128.356 37.0304 128.356 36.8015 128.127C36.5727 127.898 36.5727 127.527 36.8015 127.298L49.339 114.759C49.3666 114.724 49.3981 114.692 49.4331 114.665L62.205 101.891C62.2481 101.825 62.3046 101.768 62.3727 101.723L69.2188 94.8757C69.237 94.8546 69.2569 94.8347 69.2783 94.8162L81.9233 82.1691C81.9429 82.149 81.9639 82.1303 81.9863 82.1131C82.0672 82.0507 82.1606 82.0123 82.257 81.998C82.2972 81.992 82.3376 81.9902 82.3777 81.9926C82.5161 82.0006 82.6522 82.0575 82.7579 82.1632ZM51.6105 114.144C61.2391 112.388 68.8581 114.956 74.1503 118.078C76.969 119.74 79.1279 121.559 80.5834 122.963C81.0458 123.41 81.4377 123.814 81.7576 124.16V116.987L81.7486 116.967C81.7124 116.885 81.6555 116.761 81.5754 116.602C81.4152 116.283 81.1626 115.826 80.7986 115.281C80.0705 114.192 78.8986 112.76 77.1314 111.405C73.6354 108.725 67.7474 106.304 58.2024 107.551L51.6105 114.144ZM106.485 107.551L113.078 114.146C103.449 112.386 95.8287 114.955 90.5359 118.078C87.7176 119.74 85.559 121.559 84.1036 122.963C83.6412 123.41 83.2494 123.814 82.9295 124.16V116.988L82.9388 116.967C82.975 116.885 83.0319 116.761 83.112 116.602C83.2722 116.283 83.5248 115.826 83.8888 115.281C84.6169 114.192 85.7888 112.76 87.556 111.405C91.0519 108.726 96.9399 106.304 106.485 107.551ZM59.5325 106.221C68.5074 105.36 74.2755 107.739 77.8444 110.475C79.7179 111.911 80.97 113.433 81.7576 114.607V108.124C81.7059 108.051 81.6339 107.953 81.5419 107.832C81.3282 107.553 81.0072 107.155 80.5832 106.693C79.7339 105.768 78.4784 104.59 76.8522 103.576C73.6413 101.574 68.9769 100.198 63.0585 102.695L59.5325 106.221ZM81.7576 98.952V106.248C81.6604 106.137 81.5567 106.021 81.4467 105.901C80.5463 104.92 79.2109 103.666 77.4724 102.582C74.446 100.695 70.2046 99.3302 64.9658 100.787L70.0004 95.7515C74.0646 94.0152 76.9947 94.864 78.9179 96.1069C79.9012 96.7424 80.6347 97.4909 81.1226 98.0824C81.366 98.3773 81.5464 98.6311 81.6647 98.8087C81.7018 98.8644 81.7328 98.9126 81.7576 98.952ZM71.8472 93.9044C75.1603 93.1206 77.7301 93.9439 79.554 95.1226C80.4934 95.7298 81.2257 96.4244 81.7576 97.0225V83.9925L71.8472 93.9044ZM105.155 106.221L101.628 102.694C95.7103 100.198 91.0462 101.574 87.8354 103.576C86.2092 104.59 84.9537 105.768 84.1044 106.693C83.6804 107.155 83.3594 107.553 83.1458 107.832C83.0534 107.953 82.9812 108.052 82.9295 108.125V114.607C83.7171 113.434 84.9692 111.911 86.843 110.475C90.4119 107.739 96.1799 105.36 105.155 106.221ZM83.2409 105.901C83.1307 106.021 83.0269 106.137 82.9295 106.248V98.9521C82.9543 98.9125 82.9853 98.8642 83.0225 98.8083C83.1406 98.6307 83.3208 98.377 83.5638 98.0821C84.0511 97.4907 84.7836 96.7423 85.766 96.1068C87.6892 94.8628 90.6215 94.0135 94.692 95.7568L99.7212 100.787C94.4826 99.3303 90.2415 100.695 87.2153 102.582C85.4767 103.666 84.1413 104.92 83.2409 105.901ZM92.8421 93.9065L82.9295 83.9924V97.0211C83.4607 96.4233 84.1917 95.7294 85.1295 95.1227C86.9537 93.9428 89.5251 93.1192 92.8421 93.9065Z" fill="#D10234"/>
<path fill-rule="evenodd" clip-rule="evenodd" d="M133.525 81.3044V0H134.442V81.3044H133.525Z" fill="#D10234"/>
<path fill-rule="evenodd" clip-rule="evenodd" d="M126.021 76.1239C126.291 76.0177 126.597 76.1511 126.703 76.4218L127.552 78.5875L130.347 79.5534C131.103 77.7884 132.449 76.614 133.982 76.614C135.518 76.614 136.865 77.7914 137.621 79.5601L140.434 78.5875L141.284 76.4218C141.39 76.1511 141.696 76.0177 141.966 76.1239C142.237 76.2301 142.37 76.5356 142.264 76.8063L141.326 79.198C141.27 79.3414 141.154 79.453 141.008 79.5033L137.965 80.5551C138.106 81.0724 138.2 81.6237 138.241 82.1981L140.834 81.6067C141.038 81.5602 141.251 81.626 141.394 81.7795L143.606 84.164C143.827 84.4013 143.813 84.772 143.576 84.9922C143.338 85.2123 142.968 85.1984 142.747 84.9612L140.765 82.8246L138.248 83.3986C138.216 83.9403 138.136 84.4621 138.015 84.9553L139.918 84.5212C140.138 84.471 140.367 84.5517 140.507 84.7287L142.333 87.0345C142.534 87.2883 142.492 87.6568 142.238 87.8577C141.984 88.0586 141.616 88.0159 141.415 87.7621L139.818 85.746L137.569 86.2589C137.349 86.7507 137.082 87.1943 136.777 87.5766C136.928 87.9469 137.012 88.3536 137.012 88.7803C137.012 90.5007 135.656 91.8953 133.983 91.8953C132.31 91.8953 130.954 90.5007 130.954 88.7803C130.954 88.3539 131.037 87.9474 131.188 87.5773C130.882 87.1934 130.614 86.7475 130.393 86.2532L128.169 85.746L126.573 87.7621C126.372 88.0159 126.003 88.0586 125.749 87.8577C125.496 87.6568 125.453 87.2883 125.654 87.0345L127.48 84.7287C127.62 84.5517 127.849 84.471 128.07 84.5212L129.949 84.9498C129.828 84.4568 129.748 83.935 129.716 83.3935L127.222 82.8246L125.239 84.9612C125.019 85.1984 124.648 85.2123 124.411 84.9922C124.174 84.772 124.16 84.4013 124.38 84.164L126.593 81.7795C126.735 81.626 126.949 81.5602 127.153 81.6067L129.724 82.1932C129.765 81.6179 129.86 81.066 130.002 80.5481L126.979 79.5033C126.833 79.453 126.717 79.3414 126.661 79.198L125.723 76.8063C125.617 76.5356 125.75 76.2301 126.021 76.1239Z" fill="#D10234"/>
<path d="M201.454 69.5616C201.495 69.4883 201.52 69.4072 201.527 69.3236C201.534 69.2401 201.523 69.156 201.496 69.0769C201.468 68.9977 201.424 68.9254 201.366 68.8645C201.308 68.8037 201.238 68.7557 201.161 68.7238C198.898 67.8215 190.892 65.1434 186.517 70.5427C183.589 74.0913 179.452 76.4304 174.902 77.1092C174.788 77.1245 174.68 77.1741 174.595 77.2515C174.509 77.3288 174.448 77.4303 174.421 77.5425C174.394 77.6548 174.402 77.7727 174.443 77.8806C174.484 77.9886 174.557 78.0816 174.651 78.1475C178.518 80.8901 191.293 87.8791 201.454 69.5616Z" fill="url(#paint4_linear_1583_3409)"/>
<path d="M31.8751 107.428C31.9074 107.369 31.9269 107.304 31.9324 107.237C31.9379 107.17 31.9292 107.102 31.9069 107.039C31.8846 106.975 31.8492 106.917 31.803 106.868C31.7568 106.819 31.7009 106.781 31.6388 106.755C29.8271 106.039 23.3895 103.89 19.8735 108.187C17.5274 111.034 14.212 112.913 10.5644 113.464C10.4728 113.477 10.3871 113.516 10.3184 113.578C10.2498 113.64 10.2015 113.721 10.1798 113.811C10.1581 113.901 10.1641 113.995 10.1969 114.082C10.2298 114.168 10.288 114.242 10.3639 114.295C13.4502 116.529 23.7117 122.143 31.8751 107.428Z" fill="url(#paint5_linear_1583_3409)"/>
<path d="M183.84 99.305C183.813 99.2559 183.796 99.2015 183.792 99.1454C183.787 99.0894 183.795 99.033 183.814 98.9801C183.833 98.9272 183.863 98.879 183.902 98.8387C183.941 98.7984 183.989 98.7669 184.041 98.7464C185.559 98.1378 190.937 96.3404 193.873 99.9638C195.841 102.347 198.621 103.919 201.678 104.375C201.759 104.382 201.836 104.415 201.897 104.469C201.959 104.522 202.001 104.594 202.02 104.673C202.038 104.753 202.031 104.836 201.999 104.911C201.967 104.986 201.912 105.049 201.843 105.091C199.251 106.946 190.665 111.636 183.84 99.305Z" fill="url(#paint6_linear_1583_3409)"/>
<path d="M0.0799494 76.0657C0.0357523 75.9838 0.00919789 75.8936 0.0019976 75.8008C-0.00520269 75.7081 0.00711089 75.6148 0.0381447 75.5271C0.0691786 75.4394 0.118244 75.3592 0.182179 75.2916C0.246114 75.224 0.3235 75.1706 0.409349 75.1348C2.91565 74.1394 11.788 71.1748 16.6359 77.147C19.8832 81.0845 24.4762 83.677 29.5254 84.4224C29.6517 84.441 29.7694 84.4971 29.8635 84.5834C29.9575 84.6697 30.0234 84.7823 30.0527 84.9065C30.082 85.0307 30.0734 85.1609 30.0279 85.2801C29.9824 85.3994 29.9021 85.5022 29.7975 85.5753C25.4938 88.6115 11.3368 96.3595 0.0799494 76.0657Z" fill="url(#paint7_linear_1583_3409)"/>
<path d="M30.3674 53.4422C30.0526 52.2075 31.1924 51.095 32.4191 51.4397L37.692 52.9215C38.9187 53.2662 39.3122 54.8096 38.4003 55.6996L34.4806 59.5252C33.5688 60.4152 32.0354 59.9843 31.7206 58.7496L30.3674 53.4422Z" fill="#D10234"/>
<path d="M178.624 22.8584C179.114 20.8315 181.997 20.8315 182.486 22.8584L183.291 26.1936C183.466 26.918 184.031 27.4835 184.756 27.6584L188.091 28.4635C190.118 28.9528 190.118 31.8358 188.091 32.3251L184.756 33.1302C184.031 33.3051 183.466 33.8706 183.291 34.595L182.486 37.9302C181.997 39.9571 179.114 39.9571 178.624 37.9302L177.819 34.595C177.644 33.8706 177.079 33.3051 176.354 33.1302L173.019 32.3251C170.992 31.8358 170.992 28.9528 173.019 28.4635L176.354 27.6584C177.079 27.4835 177.644 26.918 177.819 26.1936L178.624 22.8584Z" fill="#D10234"/>
<path d="M67.5676 176.93C68.0569 174.903 70.94 174.903 71.4293 176.93L72.2344 180.265C72.4092 180.989 72.9748 181.555 73.6991 181.73L77.0343 182.535C79.0613 183.024 79.0613 185.907 77.0343 186.396L73.6991 187.201C72.9748 187.376 72.4092 187.942 72.2344 188.666L71.4293 192.001C70.94 194.028 68.0569 194.028 67.5676 192.001L66.7625 188.666C66.5876 187.942 66.0221 187.376 65.2977 187.201L61.9625 186.396C59.9356 185.907 59.9356 183.024 61.9625 182.535L65.2977 181.73C66.0221 181.555 66.5876 180.989 66.7625 180.265L67.5676 176.93Z" fill="#D10234"/>
<path d="M46.9249 167.205C46.9249 169.022 45.4521 170.495 43.6354 170.495C41.8187 170.495 40.3459 169.022 40.3459 167.205C40.3459 165.388 41.8187 163.916 43.6354 163.916C45.4521 163.916 46.9249 165.388 46.9249 167.205Z" stroke="#D10234" stroke-width="2.48287"/>
<circle cx="49.11" cy="27.2115" r="3.28948" stroke="#D10234" stroke-width="2.48287"/>
<circle cx="190.668" cy="160.166" r="3.28948" stroke="#D10234" stroke-width="2.48287"/>
<defs>
<linearGradient id="paint0_linear_1583_3409" x1="103.875" y1="-21.3896" x2="105.712" y2="293.645" gradientUnits="userSpaceOnUse">
<stop stop-color="#FFE1E1" stop-opacity="0"/>
<stop offset="1" stop-color="#FFE1E0"/>
</linearGradient>
<linearGradient id="paint1_linear_1583_3409" x1="122.433" y1="26.7834" x2="109.568" y2="3.28211" gradientUnits="userSpaceOnUse">
<stop stop-color="#FF9999"/>
<stop offset="1" stop-color="#FFE7DA"/>
</linearGradient>
<linearGradient id="paint2_linear_1583_3409" x1="161.892" y1="199.041" x2="55.9446" y2="84.5708" gradientUnits="userSpaceOnUse">
<stop stop-color="#FFDEAC"/>
<stop offset="0.70369" stop-color="#FF426F"/>
</linearGradient>
<linearGradient id="paint3_linear_1583_3409" x1="125.134" y1="133.346" x2="91.9344" y2="35.74" gradientUnits="userSpaceOnUse">
<stop stop-color="#FF9999"/>
<stop offset="1" stop-color="#FFE7DA"/>
</linearGradient>
<linearGradient id="paint4_linear_1583_3409" x1="208.128" y1="82.5106" x2="198.944" y2="61.1702" gradientUnits="userSpaceOnUse">
<stop stop-color="#FF9999"/>
<stop offset="1" stop-color="#FFE7DA"/>
</linearGradient>
<linearGradient id="paint5_linear_1583_3409" x1="37.2297" y1="117.826" x2="29.854" y2="100.695" gradientUnits="userSpaceOnUse">
<stop stop-color="#FF9999"/>
<stop offset="1" stop-color="#FFE7DA"/>
</linearGradient>
<linearGradient id="paint6_linear_1583_3409" x1="206.467" y1="108.029" x2="200.279" y2="93.6667" gradientUnits="userSpaceOnUse">
<stop stop-color="#FF9999"/>
<stop offset="1" stop-color="#FFE7DA"/>
</linearGradient>
<linearGradient id="paint7_linear_1583_3409" x1="37.3854" y1="90.4094" x2="27.2185" y2="66.765" gradientUnits="userSpaceOnUse">
<stop stop-color="#FF9999"/>
<stop offset="1" stop-color="#FFE7DA"/>
</linearGradient>
</defs>
</svg>
