<svg width="80" height="80" viewBox="0 0 80 80" fill="none" xmlns="http://www.w3.org/2000/svg">
<rect width="80" height="80" fill="#292D32"/>
<path d="M-296 -189C-296 -190.105 -295.105 -191 -294 -191H750C751.104 -191 752 -190.105 752 -189V773C752 774.105 751.105 775 750 775H-294C-295.105 775 -296 774.105 -296 773V-189Z" fill="#404040"/>
<rect width="360" height="800" transform="translate(-140 -115)" fill="white"/>
<g clip-path="url(#clip0_904_1883)">
<path d="M65.1852 0H14.8148C6.63282 0 0 6.63282 0 14.8148V65.1852C0 73.3672 6.63282 80 14.8148 80H65.1852C73.3672 80 80 73.3672 80 65.1852V14.8148C80 6.63282 73.3672 0 65.1852 0Z" fill="#470000"/>
<path d="M18.4592 55.7037V23.8815H29.6592C31.1703 23.8815 32.5777 24.1333 33.8815 24.637C35.2148 25.1111 36.3703 25.7926 37.3481 26.6815C38.3259 27.5704 39.0963 28.637 39.6592 29.8815C40.2222 31.0963 40.5037 32.4444 40.5037 33.9259C40.5037 35.437 40.2222 36.8148 39.6592 38.0592C39.0963 39.2741 38.3259 40.3259 37.3481 41.2148C36.3703 42.1037 35.2148 42.8 33.8815 43.3037C32.5777 43.7778 31.1703 44.0148 29.6592 44.0148H24.4592V55.7037H18.4592ZM29.7481 38.3259C31.3185 38.3259 32.5037 37.8815 33.3037 36.9926C34.1037 36.1037 34.5037 35.0815 34.5037 33.9259C34.5037 33.363 34.4 32.8148 34.1926 32.2815C34.0148 31.7481 33.7185 31.2889 33.3037 30.9037C32.9185 30.4889 32.4296 30.163 31.837 29.9259C31.2444 29.6889 30.5481 29.5704 29.7481 29.5704H24.4592V38.3259H29.7481ZM63.1099 50.4592C62.1025 52.237 60.7395 53.6741 59.021 54.7704C57.3321 55.8667 55.258 56.4148 52.7988 56.4148C51.1395 56.4148 49.5988 56.1333 48.1766 55.5704C46.784 54.9778 45.5692 54.163 44.5321 53.1259C43.4951 52.0889 42.6803 50.8741 42.0877 49.4815C41.5247 48.0592 41.2432 46.5037 41.2432 44.8148C41.2432 43.2444 41.5247 41.763 42.0877 40.3704C42.6506 38.9481 43.4358 37.7185 44.4432 36.6815C45.4506 35.6148 46.6358 34.7704 47.9988 34.1481C49.3914 33.5259 50.9173 33.2148 52.5766 33.2148C54.3247 33.2148 55.8803 33.5111 57.2432 34.1037C58.6062 34.6667 59.7469 35.4667 60.6655 36.5037C61.584 37.5111 62.2803 38.7111 62.7543 40.1037C63.2284 41.4963 63.4655 43.0074 63.4655 44.637C63.4655 44.8444 63.4655 45.0222 63.4655 45.1704C63.4358 45.3481 63.421 45.5111 63.421 45.6593C63.3914 45.8074 63.3766 45.9704 63.3766 46.1481H46.9766C47.0951 47.037 47.3321 47.8074 47.6877 48.4592C48.0729 49.0815 48.5321 49.6148 49.0654 50.0592C49.6284 50.4741 50.2358 50.7852 50.8877 50.9926C51.5395 51.1704 52.2062 51.2592 52.8877 51.2592C54.221 51.2592 55.3173 50.963 56.1766 50.3704C57.0654 49.7481 57.7617 48.9778 58.2654 48.0592L63.1099 50.4592ZM57.821 42.0148C57.7914 41.6296 57.658 41.2 57.421 40.7259C57.2136 40.2518 56.8877 39.8074 56.4432 39.3926C56.0284 38.9778 55.4951 38.637 54.8432 38.3704C54.221 38.1037 53.4655 37.9704 52.5766 37.9704C51.3321 37.9704 50.2358 38.3259 49.2877 39.037C48.3395 39.7481 47.6729 40.7407 47.2877 42.0148H57.821Z" fill="#D10234"/>
</g>
<path d="M-294 -190H750V-192H-294V-190ZM751 -189V773H753V-189H751ZM750 774H-294V776H750V774ZM-295 773V-189H-297V773H-295ZM-294 774C-294.552 774 -295 773.552 -295 773H-297C-297 774.657 -295.657 776 -294 776V774ZM751 773C751 773.552 750.552 774 750 774V776C751.657 776 753 774.657 753 773H751ZM750 -190C750.552 -190 751 -189.552 751 -189H753C753 -190.657 751.657 -192 750 -192V-190ZM-294 -192C-295.657 -192 -297 -190.657 -297 -189H-295C-295 -189.552 -294.552 -190 -294 -190V-192Z" fill="black" fill-opacity="0.1"/>
<defs>
<clipPath id="clip0_904_1883">
<rect width="80" height="80" fill="white"/>
</clipPath>
</defs>
</svg>
