<svg width="16" height="18" viewBox="0 0 16 18" fill="none" xmlns="http://www.w3.org/2000/svg">
<path d="M5.49999 7.75L7.16666 9.41667L10.9167 5.66667M14.6667 16.5V5.5C14.6667 4.09987 14.6667 3.3998 14.3942 2.86502C14.1545 2.39462 13.772 2.01217 13.3016 1.77248C12.7669 1.5 12.0668 1.5 10.6667 1.5H5.33333C3.9332 1.5 3.23313 1.5 2.69835 1.77248C2.22795 2.01217 1.8455 2.39462 1.60581 2.86502C1.33333 3.3998 1.33333 4.09987 1.33333 5.5V16.5L3.62499 14.8333L5.70833 16.5L7.99999 14.8333L10.2917 16.5L12.375 14.8333L14.6667 16.5Z" stroke="#D10234" stroke-width="1.5" stroke-linecap="round" stroke-linejoin="round"/>
</svg>
