<svg width="20" height="20" viewBox="0 0 20 20" fill="none" xmlns="http://www.w3.org/2000/svg">
<path d="M8.33334 12.5L5.77062 15.0947C5.41316 15.4567 5.23443 15.6376 5.0808 15.6504C4.94752 15.6615 4.81702 15.6079 4.72997 15.5064C4.62963 15.3893 4.62963 15.135 4.62963 14.6263V13.3263C4.62963 12.87 4.2559 12.5397 3.80434 12.4736V12.4736C2.71146 12.3135 1.85315 11.4552 1.69307 10.3623C1.66667 10.1821 1.66667 9.96709 1.66667 9.53703V5.66666C1.66667 4.26653 1.66667 3.56646 1.93916 3.03168C2.17884 2.56128 2.56129 2.17882 3.0317 1.93914C3.56647 1.66666 4.26654 1.66666 5.66667 1.66666H11.8333C13.2335 1.66666 13.9335 1.66666 14.4683 1.93914C14.9387 2.17882 15.3212 2.56128 15.5609 3.03168C15.8333 3.56646 15.8333 4.26653 15.8333 5.66666V9.16666M15.8333 18.3333L14.0197 17.0724C13.7647 16.8951 13.6372 16.8065 13.4985 16.7437C13.3754 16.6879 13.2459 16.6473 13.113 16.6228C12.9632 16.5952 12.8079 16.5952 12.4974 16.5952H11C10.0666 16.5952 9.59987 16.5952 9.24335 16.4136C8.92975 16.2538 8.67478 15.9988 8.51499 15.6852C8.33334 15.3287 8.33334 14.862 8.33334 13.9286V11.8333C8.33334 10.8999 8.33334 10.4332 8.51499 10.0767C8.67478 9.76307 8.92975 9.5081 9.24335 9.34831C9.59987 9.16666 10.0666 9.16666 11 9.16666H15.6667C16.6001 9.16666 17.0668 9.16666 17.4233 9.34831C17.7369 9.5081 17.9919 9.76307 18.1517 10.0767C18.3333 10.4332 18.3333 10.8999 18.3333 11.8333V14.0952C18.3333 14.8718 18.3333 15.2601 18.2065 15.5664C18.0373 15.9747 17.7129 16.2992 17.3045 16.4684C16.9982 16.5952 16.6099 16.5952 15.8333 16.5952V18.3333Z" stroke="#D10234" stroke-width="1.5" stroke-linecap="round" stroke-linejoin="round"/>
</svg>
