<svg width="18" height="17" viewBox="0 0 18 17" fill="none" xmlns="http://www.w3.org/2000/svg">
<path d="M8.4022 1.87774C8.59427 1.48863 8.69031 1.29407 8.82068 1.23191C8.93411 1.17782 9.0659 1.17782 9.17933 1.23191C9.3097 1.29407 9.40574 1.48863 9.59781 1.87774L11.42 5.56938C11.4767 5.68426 11.5051 5.7417 11.5465 5.78629C11.5832 5.82578 11.6272 5.85777 11.6761 5.8805C11.7313 5.90617 11.7947 5.91543 11.9214 5.93396L15.9975 6.52973C16.4267 6.59247 16.6413 6.62384 16.7406 6.72868C16.8271 6.81989 16.8677 6.94523 16.8512 7.06979C16.8323 7.21296 16.677 7.3643 16.3662 7.66696L13.4179 10.5387C13.326 10.6282 13.28 10.6729 13.2503 10.7262C13.2241 10.7734 13.2072 10.8252 13.2008 10.8787C13.1934 10.9392 13.2043 11.0025 13.2259 11.1289L13.9216 15.1851C13.995 15.6129 14.0317 15.8268 13.9627 15.9537C13.9028 16.0642 13.7961 16.1416 13.6725 16.1645C13.5305 16.1909 13.3384 16.0899 12.9542 15.8878L9.3103 13.9715C9.19677 13.9118 9.14 13.8819 9.08019 13.8702C9.02724 13.8598 8.97277 13.8598 8.91982 13.8702C8.86001 13.8819 8.80324 13.9118 8.6897 13.9715L5.04576 15.8878C4.66159 16.0899 4.4695 16.1909 4.32747 16.1645C4.20389 16.1416 4.09726 16.0642 4.03727 15.9537C3.96832 15.8268 4.00501 15.6129 4.07839 15.1851L4.77406 11.1289C4.79575 11.0025 4.80659 10.9392 4.79926 10.8787C4.79276 10.8252 4.77592 10.7734 4.74966 10.7262C4.72001 10.6729 4.67405 10.6282 4.58214 10.5387L1.63379 7.66696C1.32304 7.3643 1.16767 7.21296 1.14876 7.06979C1.13231 6.94523 1.17295 6.81989 1.25937 6.72868C1.35869 6.62384 1.5733 6.59247 2.00253 6.52973L6.07858 5.93396C6.20534 5.91543 6.26872 5.90617 6.32392 5.8805C6.37279 5.85777 6.41679 5.82578 6.45348 5.78629C6.49491 5.7417 6.52326 5.68426 6.57997 5.56938L8.4022 1.87774Z" stroke="#D10234" stroke-width="1.5" stroke-linecap="round" stroke-linejoin="round"/>
</svg>
