<svg width="20" height="20" viewBox="0 0 20 20" fill="none" xmlns="http://www.w3.org/2000/svg">
<path d="M10 13C6.82993 13 4.0108 14.5306 2.216 16.906C1.82971 17.4172 1.63656 17.6728 1.64288 18.0183C1.64776 18.2852 1.81536 18.6219 2.02537 18.7867C2.29719 19 2.67387 19 3.42724 19H16.5728C17.3261 19 17.7028 19 17.9746 18.7867C18.1846 18.6219 18.3522 18.2852 18.3571 18.0183C18.3634 17.6728 18.1703 17.4172 17.784 16.906C15.9892 14.5306 13.1701 13 10 13Z" stroke="#717171" stroke-width="1.5" stroke-linecap="round" stroke-linejoin="round"/>
<path d="M10 10C12.4853 10 14.5 7.98528 14.5 5.5C14.5 3.01472 12.4853 1 10 1C7.51472 1 5.5 3.01472 5.5 5.5C5.5 7.98528 7.51472 10 10 10Z" stroke="#717171" stroke-width="1.5" stroke-linecap="round" stroke-linejoin="round"/>
</svg>
