<svg width="20" height="17" viewBox="0 0 20 17" fill="none" xmlns="http://www.w3.org/2000/svg">
<path d="M9.9998 6.49999V9.83332M9.9998 13.1667H10.0081M8.8459 2.24309L1.99183 14.0819C1.61166 14.7386 1.42157 15.0669 1.44967 15.3364C1.47417 15.5714 1.59731 15.785 1.78844 15.924C2.00757 16.0833 2.38696 16.0833 3.14573 16.0833H16.8539C17.6126 16.0833 17.992 16.0833 18.2112 15.924C18.4023 15.785 18.5254 15.5714 18.5499 15.3364C18.578 15.0669 18.3879 14.7386 18.0078 14.0819L11.1537 2.24309C10.7749 1.58879 10.5855 1.26164 10.3384 1.15176C10.1228 1.05591 9.87677 1.05591 9.66122 1.15176C9.41411 1.26164 9.22471 1.58879 8.8459 2.24309Z" stroke="#D10234" stroke-width="1.5" stroke-linecap="round" stroke-linejoin="round"/>
</svg>
