<svg width="20" height="18" viewBox="0 0 20 18" fill="none" xmlns="http://www.w3.org/2000/svg">
<path d="M4.16667 1.5L1.66667 4M18.3333 4L15.8333 1.5M5.00001 14.8333L3.33334 16.5M15 14.8333L16.6667 16.5M10 6.5V9.83333L11.6667 11.5M10 16.5C11.7681 16.5 13.4638 15.7976 14.7141 14.5474C15.9643 13.2971 16.6667 11.6014 16.6667 9.83333C16.6667 8.06522 15.9643 6.36953 14.7141 5.11929C13.4638 3.86905 11.7681 3.16667 10 3.16667C8.2319 3.16667 6.5362 3.86905 5.28596 5.11929C4.03572 6.36953 3.33334 8.06522 3.33334 9.83333C3.33334 11.6014 4.03572 13.2971 5.28596 14.5474C6.5362 15.7976 8.2319 16.5 10 16.5Z" stroke="#D10234" stroke-width="1.5" stroke-linecap="round" stroke-linejoin="round"/>
</svg>
