<svg width="67" height="100" viewBox="0 0 67 100" fill="none" xmlns="http://www.w3.org/2000/svg">
<path fill-rule="evenodd" clip-rule="evenodd" d="M25.173 0.733749C15.6101 3.40377 7.77232 9.89282 3.56618 18.6234C0.0783161 25.8615 0.0206969 26.6206 0.00950886 65.1773L0 100L2.37745 99.9933C11.2249 99.9687 21.9643 93.0304 26.4921 84.414C30.1601 77.4332 30.1903 77.0836 30.1993 40.9301C30.2071 10.6782 30.2753 8.37349 31.1866 7.59089C32.8793 6.137 33.9954 6.03855 35.4862 7.21105L36.9205 8.33936V36.1824C36.9205 63.1288 36.9557 64.0568 38.0174 65.0173C41.276 67.967 54.1808 61.4338 59.7955 53.9926C62.414 50.5227 64.9699 45.4461 66.0641 41.5426C67.3446 36.9762 67.0772 27.7601 65.5293 23.0824C62.1936 13.0042 54.1545 4.78885 44.2637 1.34965C39.9905 -0.13612 29.5011 -0.474557 25.173 0.733749Z" fill="#D10234"/>
</svg>
